HIERARCHY
ROOT Hips
{
	OFFSET 0.00000 0.00000 0.00000
	CHANNELS 6 Xposition Yposition Zposition Zrotation Yrotation Xrotation 
	JOINT LHipJoint
	{
		OFFSET 0 0 0
		CHANNELS 3 Zrotation Yrotation Xrotation
		JOINT LeftHip
		{
			OFFSET 2.36090 -1.39315 1.24752
			CHANNELS 3 Zrotation Yrotation Xrotation
			JOINT LeftKnee
			{
				OFFSET 2.06810 -5.68207 0.00000
				CHANNELS 3 Zrotation Yrotation Xrotation
				JOINT LeftAnkle
				{
					OFFSET 2.46631 -6.77613 0.00000
					CHANNELS 3 Zrotation Yrotation Xrotation
					JOINT LeftToe
					{
						OFFSET 0.26031 -0.71520 1.99545
						CHANNELS 3 Zrotation Yrotation Xrotation
						End Site
						{
							OFFSET 0.00000 -0.00000 1.05957
						}
					}
				}
			}
		}
	}
	JOINT RHipJoint
	{
		OFFSET 0 0 0
		CHANNELS 3 Zrotation Yrotation Xrotation
		JOINT RightHip
		{
			OFFSET -2.25243 -1.39315 1.24752
			CHANNELS 3 Zrotation Yrotation Xrotation
			JOINT RightKnee
			{
				OFFSET -2.17343 -5.97145 0.00000
				CHANNELS 3 Zrotation Yrotation Xrotation
				JOINT RightAnkle
				{
					OFFSET -2.52372 -6.93386 0.00000
					CHANNELS 3 Zrotation Yrotation Xrotation
					JOINT RightToe
					{
						OFFSET -0.22538 -0.61923 2.11447
						CHANNELS 3 Zrotation Yrotation Xrotation
						End Site
						{
							OFFSET -0.00000 -0.00000 1.10506
						}
					}
				}
			}
		}
	}
	JOINT lowerback
	{
		OFFSET 0 0 0
		CHANNELS 3 Zrotation Yrotation Xrotation
		JOINT Chest
		{
			OFFSET 0.01594 2.13103 0.08007
			CHANNELS 3 Zrotation Yrotation Xrotation
			JOINT Chest2
			{
				OFFSET 0.01393 2.09723 0.18338
				CHANNELS 3 Zrotation Yrotation Xrotation
				JOINT lowerneck
				{
					OFFSET 0 0 0
					CHANNELS 3 Zrotation Yrotation Xrotation
					JOINT Neck
					{
						OFFSET 0.05351 1.38915 0.32494
						CHANNELS 3 Zrotation Yrotation Xrotation
						JOINT Head
						{
							OFFSET 0.00711 1.45992 -0.21666
							CHANNELS 3 Zrotation Yrotation Xrotation
							End Site
							{
								OFFSET -0.00433 1.47702 -0.11056
							}
						}
					}
				}
				JOINT LeftCollar
				{
					OFFSET 0 0 0
					CHANNELS 3 Zrotation Yrotation Xrotation
					JOINT LeftShoulder
					{
						OFFSET 2.87198 0.92249 0.11132
CHANNELS 3 Zrotation Xrotation Yrotation
						JOINT LeftElbow
						{
OFFSET 0 -5.527310 0.000000
CHANNELS 3 Zrotation Xrotation Yrotation
							JOINT LeftWrist
							{
OFFSET 0 -3.110590 0.000000
CHANNELS 3 Zrotation Xrotation Yrotation
								JOINT lhand
								{
									OFFSET 0 0 0
CHANNELS 3 Zrotation Xrotation Yrotation
									JOINT LFingers
									{
OFFSET 0 -0.419630 0.000000
CHANNELS 3 Zrotation Xrotation Yrotation
										End Site
										{
OFFSET 0 -0.338310 0.000000
										}
									}
								}
								JOINT LThumb
								{
OFFSET 0 0.000000 0.000000
CHANNELS 3 Zrotation Xrotation Yrotation
									End Site
									{
OFFSET 0 -0.343480 0.343480
									}
								}
							}
						}
					}
				}
				JOINT RightCollar
				{
					OFFSET 0 0 0
					CHANNELS 3 Zrotation Yrotation Xrotation
					JOINT RightShoulder
					{
						OFFSET -2.94710 0.68072 0.32187
CHANNELS 3 Zrotation Xrotation Yrotation
						JOINT RightElbow
						{
OFFSET 0 -5.253960 -0.000000
CHANNELS 3 Zrotation Xrotation Yrotation
							JOINT RightWrist
							{
OFFSET 0 -3.105670 0.000000
CHANNELS 3 Zrotation Xrotation Yrotation
								JOINT rhand
								{
									OFFSET 0 0 0
CHANNELS 3 Zrotation Xrotation Yrotation
									JOINT RFingers
									{
OFFSET 0 -0.498680 0.000000
CHANNELS 3 Zrotation Xrotation Yrotation
										End Site
										{
OFFSET 0 -0.402040 0.000000
										}
									}
								}
								JOINT RThumb
								{
OFFSET 0 0.000000 0.000000
CHANNELS 3 Zrotation Xrotation Yrotation
									End Site
									{
OFFSET 0 -0.408180 0.408180
									}
								}
							}
						}
					}
				}
			}
		}
	}
}
MOTION
Frames: 11
Frame Time: 0.008333333333333333
3.730172 11.212443 9.646520 -0.251335 -10.640257 67.517980 0.000000 0.000000 0.000000 0.365216 1.904823 -138.392638 18.321121 19.931607 85.085905 0.245622 -6.618137 -9.317759 0.848930 -5.876372 -16.426232 0.000000 0.000000 0.000000 -5.840098 -2.505177 -142.394009 -18.849294 -19.967555 86.633713 -0.143585 3.911771 -6.860091 -0.844860 5.862795 -16.386968 -4.562859 -0.324993 -1.963598 0.739771 -0.611310 -11.035310 3.388190 0.147802 -10.618140 0.108188 -1.909184 -53.698371 5.703151 -3.448701 -1.313978 1.638614 -0.965675 6.006960 0.000000 0.000000 0.000000 22.380792 -7.371070 -21.291898 57.481126 -55.594016 32.255286 40.001014 -42.084393 24.030591 0.000000 0.000000 0.000000 -7.125000 0.000000 0.000000 6.394449 -0.055987 6.440933 0.000000 0.000000 0.000000 -26.701325 -7.054173 39.664046 -107.116261 -58.861406 -74.766226 -31.444275 -7.641797 12.482914 0.000000 0.000000 0.000000 7.125000 0.000000 0.000000 -3.881532 44.491762 -0.048549
3.736909 11.356338 9.690181 -0.241501 -10.755893 67.313138 0.000000 0.000000 0.000000 0.267882 1.483451 -136.798830 17.842560 19.887900 83.680635 0.260200 -6.356015 -9.470183 0.873517 -5.958716 -16.664589 0.000000 0.000000 0.000000 -6.124885 -2.126269 -140.822684 -18.391347 -19.937700 85.291944 -0.151872 3.598140 -6.991271 -0.858914 5.910104 -16.523754 -4.577825 -0.328571 -2.063092 0.755634 -0.610774 -11.027261 3.412279 0.148122 -10.549266 0.097532 -1.968921 -53.442326 5.684072 -3.508658 -1.399261 1.619217 -1.004506 5.964819 0.000000 0.000000 0.000000 21.786408 -7.108759 -21.710290 54.734155 -54.734056 29.999127 40.082730 -42.589790 24.205570 0.000000 0.000000 0.000000 -7.125000 0.000000 0.000000 6.403922 -0.288368 6.476564 0.000000 0.000000 0.000000 -26.232871 -6.625924 39.650337 -105.148235 -59.114629 -73.079702 -31.618760 -8.588035 12.824566 0.000000 0.000000 0.000000 7.125000 0.000000 0.000000 -4.028435 44.908636 -0.009031
3.743679 11.504094 9.732998 -0.226526 -10.844806 67.055652 0.000000 0.000000 0.000000 0.186224 1.041215 -135.122699 17.340901 19.828850 82.203837 0.272359 -6.073759 -9.590197 0.898925 -6.042635 -16.908099 0.000000 0.000000 0.000000 -6.389399 -1.742137 -139.167870 -17.917214 -19.895023 83.900029 -0.158806 3.261052 -7.108022 -0.871458 5.951890 -16.644854 -4.568559 -0.338559 -2.126934 0.778017 -0.619331 -11.018359 3.430955 0.142412 -10.499682 0.114206 -2.010535 -53.132677 5.643775 -3.559606 -1.489454 1.588828 -1.042830 5.916915 0.000000 0.000000 0.000000 21.204309 -6.801852 -22.102949 52.080718 -53.795075 27.846219 40.118347 -42.995126 24.242172 0.000000 0.000000 0.000000 -7.125000 0.000000 0.000000 6.416618 -0.343253 6.495777 0.000000 0.000000 0.000000 -25.765909 -6.169801 39.633503 -103.104450 -59.338976 -71.323441 -31.825527 -9.673349 13.154054 0.000000 0.000000 0.000000 7.125000 0.000000 0.000000 -4.207294 45.317054 0.033245
3.749540 11.653695 9.775798 -0.210877 -10.930186 66.748780 0.000000 0.000000 0.000000 0.084410 0.602135 -133.377830 16.825249 19.755677 80.681023 0.282351 -5.791554 -9.684243 0.924345 -6.125033 -17.147631 0.000000 0.000000 0.000000 -6.644917 -1.341580 -137.447126 -17.432973 -19.840450 82.475113 -0.164624 2.908789 -7.212837 -0.883645 5.992203 -16.761925 -4.562112 -0.349190 -2.161544 0.800383 -0.630296 -11.005406 3.451690 0.136086 -10.462769 0.007781 -2.117559 -52.379916 5.746619 -3.616382 -2.029460 1.584385 -1.082060 5.907727 0.000000 0.000000 0.000000 20.644984 -6.470210 -22.482260 49.501120 -52.784865 25.778244 40.044724 -43.288740 24.130465 0.000000 0.000000 0.000000 -7.125000 0.000000 0.000000 6.398158 -0.187705 6.459470 0.000000 0.000000 0.000000 -25.300564 -5.694882 39.598873 -100.963015 -59.538195 -69.479387 -32.087918 -10.808288 13.421661 0.000000 0.000000 0.000000 7.125000 0.000000 0.000000 -4.443173 45.663061 0.073180
3.754414 11.803862 9.819309 -0.199248 -11.018930 66.391371 0.000000 0.000000 0.000000 -0.041248 0.180316 -131.571376 16.302051 19.668536 79.130208 0.290628 -5.510456 -9.759273 0.951998 -6.213353 -17.404732 0.000000 0.000000 0.000000 -6.888125 -0.922233 -135.671633 -16.943742 -19.774229 81.031675 -0.169147 2.549845 -7.306442 -0.895063 6.029815 -16.870875 -4.565671 -0.357928 -2.176152 0.823995 -0.639595 -10.981848 3.479332 0.131442 -10.425839 -0.090008 -2.222391 -51.720402 5.839198 -3.680176 -2.435247 1.586797 -1.121515 5.886774 0.000000 0.000000 0.000000 20.111227 -6.131282 -22.851105 46.991212 -51.704399 23.792319 39.825573 -43.478006 23.864438 0.000000 0.000000 0.000000 -7.125000 0.000000 0.000000 6.327785 0.196927 6.344882 0.000000 0.000000 0.000000 -24.846947 -5.214770 39.537785 -98.710937 -59.710139 -67.536426 -32.411506 -11.919444 13.620362 0.000000 0.000000 0.000000 7.125000 0.000000 0.000000 -4.742400 45.939629 0.110326
3.758317 11.954246 9.863973 -0.186738 -11.110469 65.969176 0.000000 0.000000 0.000000 -0.179458 -0.229182 -129.681912 15.770988 19.565018 77.548278 0.297473 -5.213723 -9.818844 0.981728 -6.306919 -17.677745 0.000000 0.000000 0.000000 -7.114806 -0.489485 -133.826435 -16.451025 -19.694750 79.572319 -0.172497 2.186909 -7.390995 -0.906568 6.067502 -16.980469 -4.577450 -0.366352 -2.172248 0.847718 -0.649110 -10.938267 3.511711 0.126926 -10.377121 -0.120016 -2.294966 -51.321226 5.853995 -3.748448 -2.517499 1.581731 -1.161856 5.833255 0.000000 0.000000 0.000000 19.609407 -5.798129 -23.211671 44.562343 -50.547193 21.901684 39.452440 -43.584285 23.430941 0.000000 0.000000 0.000000 -7.125000 0.000000 0.000000 6.200982 0.826282 6.147285 0.000000 0.000000 0.000000 -24.405206 -4.748439 39.443505 -96.294015 -59.847447 -65.447944 -32.766380 -12.934052 13.728924 0.000000 0.000000 0.000000 7.125000 0.000000 0.000000 -5.077616 46.117824 0.140554
3.761567 12.106382 9.910269 -0.167169 -11.192916 65.451793 0.000000 0.000000 0.000000 -0.320531 -0.641693 -127.667248 15.228791 19.444053 75.924110 0.303227 -4.893626 -9.866406 1.013025 -6.403635 -17.960264 0.000000 0.000000 0.000000 -7.310041 -0.051115 -131.870610 -15.954076 -19.601980 78.094336 -0.174861 1.825934 -7.474027 -0.918623 6.106537 -17.093940 -4.580661 -0.375156 -2.126876 0.868922 -0.660224 -10.864146 3.536814 0.119847 -10.317966 -0.142726 -2.370057 -50.896954 5.858120 -3.823266 -2.591123 1.570477 -1.206976 5.780461 0.000000 0.000000 0.000000 19.142714 -5.476412 -23.575408 42.212387 -49.319325 20.103890 38.985729 -43.692911 22.903524 0.000000 0.000000 0.000000 -7.125000 0.000000 0.000000 6.034729 1.592204 5.898041 0.000000 0.000000 0.000000 -23.966921 -4.303236 39.311303 -93.695075 -59.944334 -63.199349 -33.055133 -13.782669 13.795510 0.000000 0.000000 0.000000 7.125000 0.000000 0.000000 -5.352469 46.238377 0.164119
3.764333 12.263143 9.957697 -0.137620 -11.255957 64.802445 0.000000 0.000000 0.000000 -0.477453 -1.068081 -125.472702 14.667073 19.303259 74.231180 0.307123 -4.561485 -9.893452 1.042297 -6.492743 -18.221092 0.000000 0.000000 0.000000 -7.457616 0.396010 -129.747723 -15.447891 -19.495209 76.581922 -0.176661 1.468368 -7.561384 -0.932543 6.151489 -17.224510 -4.566018 -0.385413 -1.991095 0.888819 -0.676447 -10.757628 3.551647 0.108563 -10.275038 -0.165858 -2.457472 -50.446513 5.864625 -3.914292 -2.645724 1.557455 -1.259387 5.733009 0.000000 0.000000 0.000000 18.713352 -5.153524 -23.953447 39.942597 -48.030972 18.398071 38.480215 -43.867213 22.332346 0.000000 0.000000 0.000000 -7.125000 0.000000 0.000000 5.849346 2.416634 5.627419 0.000000 0.000000 0.000000 -23.523619 -3.871124 39.150653 -90.911826 -59.994189 -60.789587 -33.251798 -14.428754 13.844536 0.000000 0.000000 0.000000 7.125000 0.000000 0.000000 -5.540082 46.325100 0.181778
3.766700 12.428365 10.006796 -0.079875 -11.282429 63.926176 0.000000 0.000000 0.000000 -0.672493 -1.534214 -122.969053 14.073826 19.135544 72.429246 0.309050 -4.229649 -9.900474 1.067466 -6.568161 -18.442244 0.000000 0.000000 0.000000 -7.532943 0.841336 -127.335622 -14.927227 -19.371028 75.017029 -0.178575 1.121095 -7.665106 -0.945952 6.194194 -17.348868 -4.528547 -0.401303 -1.654790 0.910578 -0.707782 -10.605556 3.559240 0.089134 -10.298365 -0.202533 -2.566971 -49.966359 5.887994 -4.028922 -2.662996 1.548774 -1.320486 5.698022 0.000000 0.000000 0.000000 18.321229 -4.810954 -24.356643 37.769067 -46.687756 16.798434 37.967555 -44.139014 21.741914 0.000000 0.000000 0.000000 -7.125000 0.000000 0.000000 5.657532 3.259776 5.353481 0.000000 0.000000 0.000000 -23.083606 -3.448584 38.970445 -87.938704 -59.981551 -58.215046 -33.342618 -14.840963 13.915802 0.000000 0.000000 0.000000 7.125000 0.000000 0.000000 -5.625193 46.422018 0.198040
3.767183 12.605085 10.058796 0.006611 -11.306979 62.747661 0.000000 0.000000 0.000000 -0.979352 -2.011781 -120.040278 13.436920 18.932420 70.475456 0.309053 -3.920838 -9.887110 1.089502 -6.633527 -18.634066 0.000000 0.000000 0.000000 -7.554434 1.316248 -124.534588 -14.383831 -19.225123 73.372462 -0.180581 0.778704 -7.789367 -0.957516 6.231025 -17.456220 -4.520760 -0.416320 -1.034575 0.930602 -0.751183 -10.391093 3.586332 0.068493 -10.420460 -0.267693 -2.711933 -49.469541 5.942340 -4.178650 -2.621491 1.549929 -1.393157 5.685123 0.000000 0.000000 0.000000 17.958088 -4.438661 -24.787007 35.707838 -45.303603 15.316890 37.444137 -44.457117 21.112424 0.000000 0.000000 0.000000 -7.125000 0.000000 0.000000 5.460131 4.145570 5.075106 0.000000 0.000000 0.000000 -22.652447 -3.039022 38.778627 -84.796978 -59.891781 -55.495834 -33.375187 -15.026960 14.024661 0.000000 0.000000 0.000000 7.125000 0.000000 0.000000 -5.652920 46.553946 0.217487
3.765191 12.797670 10.114911 0.115044 -11.330818 61.174302 0.000000 0.000000 0.000000 -1.427332 -2.479560 -116.546427 12.746703 18.687119 68.335194 0.308006 -3.646879 -9.864785 1.111724 -6.698605 -18.825562 0.000000 0.000000 0.000000 -7.499625 1.846534 -121.209517 -13.809504 -19.054179 71.621072 -0.183754 0.441205 -7.951895 -0.968043 6.264195 -17.552852 -4.555219 -0.421523 -0.021177 0.952378 -0.799805 -10.084727 3.645471 0.052228 -10.675488 -0.408058 -2.908368 -48.982714 6.066534 -4.363036 -2.505220 1.582185 -1.471426 5.704633 0.000000 0.000000 0.000000 17.610879 -4.045691 -25.235391 33.754350 -43.896357 13.944329 36.883067 -44.731255 20.414088 0.000000 0.000000 0.000000 -7.125000 0.000000 0.000000 5.245606 5.115720 4.777912 0.000000 0.000000 0.000000 -22.236456 -2.647486 38.574581 -81.552472 -59.723939 -52.691183 -33.413385 -15.011945 14.206965 0.000000 0.000000 0.000000 7.125000 0.000000 0.000000 -5.683484 46.772481 0.249370
